<?xml version="1.0" encoding="UTF-8"?>
<svg width="54px" height="45px" viewBox="0 0 54 45" version="1.1" xmlns="http://www.w3.org/2000/svg" xmlns:xlink="http://www.w3.org/1999/xlink">
    <!-- Generator: Sketch 55.2 (78181) - https://sketchapp.com -->
    <title>Group 3</title>
    <desc>Created with Sketch.</desc>
    <g id="Page-1" stroke="none" stroke-width="1" fill="none" fill-rule="evenodd">
        <g id="Desktop-HD" transform="translate(-925.000000, -308.000000)" fill="#000000" fill-rule="nonzero">
            <g id="Group-7" transform="translate(842.000000, 274.000000)">
                <g id="Group-3" transform="translate(83.000000, 34.000000)">
                    <g id="landing-page-copy">
                        <path d="M40.7228555,20.3575368 L35.027543,20.3575368 C34.4451445,20.3575368 33.9728555,20.783523 33.9728555,21.3088235 L33.9728555,26.4457721 C33.9728555,26.9710726 34.4451445,27.3970588 35.027543,27.3970588 L40.7228555,27.3970588 C41.3052539,27.3970588 41.777543,26.9710726 41.777543,26.4457721 L41.777543,21.3088235 C41.777543,20.783523 41.3053594,20.3575368 40.7228555,20.3575368 Z M39.668168,25.4944853 L36.0822305,25.4944853 L36.0822305,22.2601103 L39.668168,22.2601103 L39.668168,25.4944853 Z" id="Shape"></path>
                        <path d="M29.8595742,20.3575368 L24.1642617,20.3575368 C23.5818633,20.3575368 23.1095742,20.783523 23.1095742,21.3088235 L23.1095742,26.4457721 C23.1095742,26.9710726 23.5818633,27.3970588 24.1642617,27.3970588 L29.8595742,27.3970588 C30.4419727,27.3970588 30.9142617,26.9710726 30.9142617,26.4457721 L30.9142617,21.3088235 C30.9142617,20.783523 30.4420781,20.3575368 29.8595742,20.3575368 Z M28.8048867,25.4944853 L25.2189492,25.4944853 L25.2189492,22.2601103 L28.8048867,22.2601103 L28.8048867,25.4944853 Z" id="Shape"></path>
                        <path d="M18.996293,20.3575368 L13.3009805,20.3575368 C12.718582,20.3575368 12.246293,20.783523 12.246293,21.3088235 L12.246293,26.4457721 C12.246293,26.9710726 12.718582,27.3970588 13.3009805,27.3970588 L18.996293,27.3970588 C19.5786914,27.3970588 20.0509805,26.9710726 20.0509805,26.4457721 L20.0509805,21.3088235 C20.0509805,20.783523 19.5787969,20.3575368 18.996293,20.3575368 Z M17.9416055,25.4944853 L14.355668,25.4944853 L14.355668,22.2601103 L17.9416055,22.2601103 L17.9416055,25.4944853 Z" id="Shape"></path>
                        <path d="M27.6264385,33.6316682 C27.4302666,33.4546337 27.1581573,33.3529412 26.8807745,33.3529412 C26.6033916,33.3529412 26.3312823,33.4546337 26.1351104,33.6316682 C25.939044,33.8086075 25.826087,34.0540395 25.826087,34.3042279 C25.826087,34.5544164 25.9389385,34.7998483 26.1351104,34.9766926 C26.3312823,35.1536319 26.6033916,35.2555147 26.8807745,35.2555147 C27.1581573,35.2555147 27.4302666,35.153727 27.6264385,34.9766926 C27.8225049,34.7998483 27.935462,34.5544164 27.935462,34.3042279 C27.935462,34.0540395 27.8226104,33.8086075 27.6264385,33.6316682 Z" id="Path"></path>
                        <path d="M22.9265217,33.3529412 L13.3121739,33.3529412 C12.5966514,33.3529412 12.246293,33.7789274 12.246293,34.3042279 C12.246293,34.8295285 12.5966514,35.2555147 13.3121739,35.2555147 L22.9265217,35.2555147 C23.6420443,35.2555147 23.9854234,34.8295285 23.9854234,34.3042279 C23.9854234,33.7789274 23.6420443,33.3529412 22.9265217,33.3529412 Z" id="Path"></path>
                        <path d="M40.6150114,33.3529412 L31.0006636,33.3529412 C30.285141,33.3529412 29.9347826,33.7789274 29.9347826,34.3042279 C29.9347826,34.8295285 30.285141,35.2555147 31.0006636,35.2555147 L40.6150114,35.2555147 C41.3305339,35.2555147 41.673913,34.8295285 41.673913,34.3042279 C41.673913,33.7789274 41.3305339,33.3529412 40.6150114,33.3529412 Z" id="Path-Copy-3"></path>
                        <path d="M16.9624336,3.68300184 C15.2177695,3.68300184 13.7983711,4.96324357 13.7983711,6.53686213 C13.7983711,8.1104807 15.2177695,9.39072243 16.9624336,9.39072243 C18.7070977,9.39072243 20.1264961,8.1104807 20.1264961,6.53686213 C20.1264961,4.96324357 18.7070977,3.68300184 16.9624336,3.68300184 Z M16.9624336,7.4881489 C16.3808789,7.4881489 15.9077461,7.06140165 15.9077461,6.53686213 C15.9077461,6.01232261 16.3808789,5.58557537 16.9624336,5.58557537 C17.5439883,5.58557537 18.0171211,6.01232261 18.0171211,6.53686213 C18.0171211,7.06140165 17.5439883,7.4881489 16.9624336,7.4881489 Z" id="Shape"></path>
                        <path d="M52.9453125,37.4310662 L52.2070313,37.4310662 L52.2070313,13.2695239 C52.2070313,10.6468263 49.8413672,8.51309007 46.9335938,8.51309007 L45.984375,8.51309007 L45.7826087,1.05882353 C45.7826087,0.533522978 45.3103196,0.107536765 44.7279212,0.107536765 L8.8685462,0.107536765 C8.28614776,0.107536765 7.8138587,0.533522978 7.8138587,1.05882353 L8.015625,8.51309007 L7.06640625,8.51309007 C4.15863281,8.51309007 1.79296875,10.6468263 1.79296875,13.2695239 L1.57244318,37.828877 C1.57244318,38.1790774 1.6459517,38.0464738 1.79296875,37.4310662 L1.0546875,37.4310662 C0.472289063,37.4310662 0,37.8570524 0,38.3823529 L0,39.7141544 C0,42.336852 2.36566406,44.4705882 5.2734375,44.4705882 L48.7265625,44.4705882 C51.6343359,44.4705882 54,42.336852 54,39.7141544 L54,38.3823529 C54,37.8570524 53.5277109,37.4310662 52.9453125,37.4310662 Z M10.125,1.90257353 L43.875,1.90257353 L43.875,14.5938805 L34.9444336,6.53885983 C34.7465742,6.36049357 34.4783672,6.26022794 34.1986641,6.26022794 C33.9189609,6.26022794 33.6507539,6.36049357 33.4528945,6.53885983 L29.0703516,10.4918369 L27.2536523,8.8532454 C26.8416914,8.48186305 26.1740742,8.48186305 25.7620078,8.8532454 L17.226,16.5523897 L10.125,16.5523897 L10.125,1.90257353 Z M30.5618906,11.8372417 L34.1986641,8.55691958 L43.063207,16.5523897 L35.7895547,16.5523897 L30.5618906,11.8372417 Z M32.8063711,16.5523897 L20.2091836,16.5523897 L26.5077773,10.8713051 L32.8063711,16.5523897 Z M10.125,18.4549632 L43.875,18.4549632 L43.875,29.2996324 L10.125,29.2996324 L10.125,18.4549632 Z M10.125,31.2022059 L43.875,31.2022059 L43.875,37.4310656 L10.125,37.4310656 L10.125,31.2022059 Z M51.890625,39.7141544 C51.890625,41.287773 50.4712266,42.5680147 48.7265625,42.5680147 L5.2734375,42.5680147 C3.52877344,42.5680147 2.109375,41.287773 2.109375,39.7141544 L2.109375,39.3336397 L2.98982813,39.3336397 C2.99805469,39.3337348 51.890625,39.3336397 51.890625,39.3336397 L51.890625,39.7141544 Z" id="Shape"></path>
                        <path d="M28.8984375,39.9995404 L25.0928086,39.9995404 C24.5104102,39.9995404 24.0381211,40.4255267 24.0381211,40.9508272 C24.0381211,41.4761278 24.5104102,41.902114 25.0928086,41.902114 L28.8984375,41.902114 C29.4808359,41.902114 29.953125,41.4761278 29.953125,40.9508272 C29.953125,40.4255267 29.4808359,39.9995404 28.8984375,39.9995404 Z" id="Path"></path>
                    </g>
                </g>
            </g>
        </g>
    </g>
</svg>